0
SECTION
2
HEADER
9
$INSUNITS
70
4
9
$ACADVER
1
AC1014
9
$HANDSEED
5
FFFF
0
ENDSEC
0
SECTION
2
TABLES
0
TABLE
2
VPORT
5
8
100
AcDbSymbolTable
0
ENDTAB
0
TABLE
2
LTYPE
5
5
100
AcDbSymbolTable
0
LTYPE
5
14
100
AcDbSymbolTableRecord
100
AcDbLinetypeTableRecord
2
BYBLOCK
70
0
0
LTYPE
5
15
100
AcDbSymbolTableRecord
100
AcDbLinetypeTableRecord
2
BYLAYER
70
0
0
ENDTAB
0
TABLE
2
LAYER
5
2
100
AcDbSymbolTable
70
2
0
LAYER
5
50
100
AcDbSymbolTableRecord
100
AcDbLayerTableRecord
2
0
70
0
6
CONTINUOUS
0
ENDTAB
0
TABLE
2
STYLE
5
3
100
AcDbSymbolTable
70
1
0
STYLE
5
11
100
AcDbSymbolTableRecord
100
AcDbTextStyleTableRecord
2
STANDARD
70
0
0
ENDTAB
0
TABLE
2
VIEW
5
6
100
AcDbSymbolTable
70
0
0
ENDTAB
0
TABLE
2
UCS
5
7
100
AcDbSymbolTable
70
0
0
ENDTAB
0
TABLE
2
APPID
5
9
100
AcDbSymbolTable
70
2
0
APPID
5
12
100
AcDbSymbolTableRecord
100
AcDbRegAppTableRecord
2
ACAD
70
0
0
ENDTAB
0
TABLE
2
DIMSTYLE
5
A
100
AcDbSymbolTable
70
1
0
ENDTAB
0
TABLE
2
BLOCK_RECORD
5
1
100
AcDbSymbolTable
70
1
0
BLOCK_RECORD
5
1F
100
AcDbSymbolTableRecord
100
AcDbBlockTableRecord
2
*MODEL_SPACE
0
BLOCK_RECORD
5
1B
100
AcDbSymbolTableRecord
100
AcDbBlockTableRecord
2
*PAPER_SPACE
0
ENDTAB
0
ENDSEC
0
SECTION
2
BLOCKS
0
BLOCK
5
20
100
AcDbEntity
100
AcDbBlockBegin
2
*MODEL_SPACE
0
ENDBLK
5
21
100
AcDbEntity
100
AcDbBlockEnd
0
BLOCK
5
1C
100
AcDbEntity
100
AcDbBlockBegin
2
*PAPER_SPACE
0
ENDBLK
5
1D
100
AcDbEntity
100
AcDbBlockEnd
0
ENDSEC
0
SECTION
2
ENTITIES
0
CIRCLE
5
100
100
AcDbEntity
8
0
100
AcDbCircle
10
102.99787971491315
20
52.76472725091611
30
0
40
1.0000000000000071
210
0
220
0
230
1
0
CIRCLE
5
101
100
AcDbEntity
8
0
100
AcDbCircle
10
20.944792214913175
20
52.764727250916025
30
0
40
0.99999999999999811
210
0
220
0
230
1
0
CIRCLE
5
102
100
AcDbEntity
8
0
100
AcDbCircle
10
-73.161382785086744
20
52.76472725091601
30
0
40
0.99999999999999811
210
0
220
0
230
1
0
CIRCLE
5
103
100
AcDbEntity
8
0
100
AcDbCircle
10
102.99787971491315
20
-48.034732749083844
30
0
40
1.0000000000000071
210
0
220
0
230
1
0
CIRCLE
5
104
100
AcDbEntity
8
0
100
AcDbCircle
10
20.444792214913193
20
-48.034732749083844
30
0
40
0.99999999999999811
210
0
220
0
230
1
0
CIRCLE
5
105
100
AcDbEntity
8
0
100
AcDbCircle
10
-72.661382785086701
20
-48.034732749083879
30
0
40
0.99999999999999811
210
0
220
0
230
1
0
CIRCLE
5
106
100
AcDbEntity
8
0
100
AcDbCircle
10
-157.71447028508669
20
-48.034732749083972
30
0
40
1.0000000000000071
210
0
220
0
230
1
0
CIRCLE
5
107
100
AcDbEntity
8
0
100
AcDbCircle
10
-157.71447028508672
20
52.76472725091601
30
0
40
0.99999999999998923
210
0
220
0
230
1
0
LWPOLYLINE
5
108
100
AcDbEntity
8
0
100
AcDbPolyline
90
72
70
1
43
0.0
10
-75.661382785086772
20
52.264727250916074
42
-0.41421356237309509
10
-77.661382785086744
20
50.264727250916074
10
-153.21447028508672
20
50.264727250916117
42
-0.4142135623730977
10
-155.21447028508672
20
52.26472725091611
10
-155.21447028508672
20
53.26472725091601
42
0.41421356237309637
10
-157.21447028508669
20
55.264727250916025
10
-158.21447028508675
20
55.26472725091601
42
0.4142135623730937
10
-160.21447028508675
20
53.264727250916025
10
-160.21447028508675
20
52.26472725091611
42
-0.41421356237309509
10
-162.21447028508675
20
50.264727250916117
10
-199.21447028508678
20
50.264727250916145
42
0.41421356237311063
10
-200.21447028508672
20
49.264727250916138
10
-200.21447028508703
20
-44.534732749083894
42
0.41421356237308982
10
-199.21447028508709
20
-45.534732749083886
10
-162.21447028508666
20
-45.534732749083908
42
-0.41421356237311063
10
-160.21447028508672
20
-47.534732749083901
10
-160.21447028508672
20
-48.534732749083958
42
0.41421356237309243
10
-158.21447028508669
20
-50.53473274908395
10
-157.21447028508666
20
-50.534732749083958
42
0.41421356237309243
10
-155.21447028508663
20
-48.534732749083958
10
-155.21447028508669
20
-47.534732749083901
42
-0.4142135623731002
10
-153.21447028508666
20
-45.534732749083908
10
-77.161382785086701
20
-45.534732749083958
42
-0.4142135623731002
10
-75.161382785086701
20
-47.534732749083958
10
-75.161382785086701
20
-48.534732749083886
42
0.41421356237309243
10
-73.161382785086744
20
-50.534732749083901
10
-72.161382785086701
20
-50.534732749083879
42
0.41421356237308854
10
-70.161382785086715
20
-48.534732749083894
10
-70.161382785086715
20
-47.534732749083958
42
-0.41421356237309109
10
-68.161382785086715
20
-45.534732749083958
10
15.944792214913184
20
-45.534732749083993
42
-0.4142135623730967
10
17.944792214913193
20
-47.534732749084007
10
17.944792214913193
20
-48.534732749083851
42
0.4142135623730947
10
19.9447922149132
20
-50.534732749083844
10
20.944792214913193
20
-50.534732749083844
42
0.41421356237309437
10
22.9447922149132
20
-48.534732749083851
10
22.9447922149132
20
-47.534732749084
42
-0.41421356237309509
10
24.9447922149132
20
-45.534732749083993
10
98.497879714913211
20
-45.53473274908405
42
-0.41421356237308327
10
100.49787971491315
20
-47.534732749084043
10
100.49787971491315
20
-48.534732749083851
42
0.41421356237309509
10
102.49787971491315
20
-50.534732749083844
10
103.49787971491317
20
-50.534732749083844
42
0.41421356237309637
10
105.49787971491315
20
-48.534732749083851
10
105.49787971491315
20
-47.534732749084043
42
-0.41421356237309637
10
107.49787971491315
20
-45.53473274908405
10
146.9978797149131
20
-45.534732749084071
42
0.41421356237312362
10
147.99787971491313
20
-44.534732749084078
10
147.9978797149131
20
49.264727250915939
42
0.4142135623730977
10
146.9978797149131
20
50.264727250915932
10
107.49787971491315
20
50.264727250915975
42
-0.4142135623730937
10
105.49787971491315
20
52.264727250915961
10
105.49787971491315
20
53.26472725091611
42
0.41421356237309109
10
103.49787971491317
20
55.264727250916117
10
102.49787971491315
20
55.264727250916117
42
0.41421356237309243
10
100.49787971491315
20
53.264727250916117
10
100.49787971491315
20
52.264727250915968
42
-0.41421356237309637
10
98.497879714913168
20
50.264727250915975
10
25.444792214913186
20
50.26472725091601
42
-0.4142135623730937
10
23.444792214913186
20
52.264727250916003
10
23.444792214913178
20
53.264727250916025
42
0.41421356237309959
10
21.444792214913178
20
55.264727250916025
10
20.444792214913186
20
55.264727250916025
42
0.41421356237309825
10
18.444792214913186
20
53.264727250916053
10
18.444792214913186
20
52.264727250916032
42
-0.4142135623730977
10
16.444792214913182
20
50.264727250916025
10
-68.661382785086772
20
50.264727250916081
42
-0.4142135623730977
10
-70.661382785086801
20
52.264727250916074
10
-70.661382785086772
20
53.26472725091601
42
0.4142135623730937
10
-72.661382785086772
20
55.26472725091601
10
-73.661382785086772
20
55.26472725091601
42
0.4142135623730937
10
-75.661382785086786
20
53.26472725091601
0
LWPOLYLINE
5
109
100
AcDbEntity
8
0
100
AcDbPolyline
90
36
70
1
43
0.0
10
11.847529714913234
20
42.764257250916025
10
58.622629714913259
20
42.764257250915989
10
58.622629714913259
20
47.234597250915861
10
60.348029714913245
20
47.234597250915861
10
60.348029714913245
20
48.434867250916021
10
63.648329714913217
20
48.434867250916021
10
63.648329714913217
20
47.234597250915861
10
65.373729714913253
20
47.234597250915861
10
65.373729714913253
20
40.964527250915815
10
66.197829714913254
20
40.964527250915815
10
66.19782971491324
20
38.165767250916012
10
65.373729714913239
20
38.165767250916012
10
65.373729714913239
20
34.935567250915931
10
58.622629714913259
20
34.935567250915931
10
58.622629714913259
20
38.165767250916012
10
11.847529714913234
20
38.165767250916041
10
11.847529714913232
20
33.465267250916035
10
-2.1514702850867917
20
33.465267250916035
10
-2.1514702850867895
20
38.165767250916041
10
-48.926470285087049
20
38.165767250916083
10
-48.926470285087049
20
34.935567250916016
10
-55.677470285086763
20
34.935567250916016
10
-55.677470285086763
20
38.165767250916083
10
-56.501470285086754
20
38.165767250916083
10
-56.501470285086732
20
40.964527250915886
10
-55.677470285086756
20
40.964527250915886
10
-55.677470285086756
20
47.23459725091594
10
-53.951470285086785
20
47.23459725091594
10
-53.951470285086785
20
48.434867250916092
10
-50.651470285086795
20
48.434867250916092
10
-50.651470285086795
20
47.23459725091594
10
-48.926470285087014
20
47.23459725091594
10
-48.926470285087014
20
42.76425725091606
10
-2.1514702850867891
20
42.764257250916025
10
-2.1514702850867846
20
47.464727250916042
10
11.847529714913241
20
47.464727250916042
0
LWPOLYLINE
5
110
100
AcDbEntity
8
0
100
AcDbPolyline
90
4
70
1
43
0.0
10
111.86032971491323
20
9.3645672509159184
10
111.86032971491322
20
-4.6347327490840584
10
97.861029714913201
20
-4.6347327490840575
10
97.861029714913244
20
9.3645672509159184
0
LWPOLYLINE
5
111
100
AcDbEntity
8
0
100
AcDbPolyline
90
4
70
1
43
0.0
10
-40.5394702850868
20
9.3645672509160249
10
-40.539470285086814
20
-4.6347327490839518
10
-54.539470285086793
20
-4.6347327490839518
10
-54.539470285086793
20
9.3645672509160249
0
LWPOLYLINE
5
112
100
AcDbEntity
8
0
100
AcDbPolyline
90
4
70
1
43
0.0
10
83.573529714913221
20
-23.684732749084052
10
83.573529714913221
20
-9.6854327490841285
10
97.572829714913212
20
-9.6854327490841641
10
97.572829714913212
20
-23.684732749084052
0
LWPOLYLINE
5
113
100
AcDbEntity
8
0
100
AcDbPolyline
90
4
70
1
43
0.0
10
35.66052971491321
20
9.3645672509159539
10
35.66052971491321
20
-4.6347327490840229
10
21.660529714913181
20
-4.6347327490839874
10
21.660529714913189
20
9.3645672509159894
0
LWPOLYLINE
5
114
100
AcDbEntity
8
0
100
AcDbPolyline
90
36
70
1
43
0.0
10
-109.59447028508684
20
4.6655672509161059
10
-108.07047028508684
20
4.6655672509161059
10
-108.07047028508684
20
9.1345672509160991
10
-106.34347028508671
20
9.1345672509160991
10
-106.34347028508671
20
10.334767250916137
10
-103.04447028508682
20
10.334767250916137
10
-103.04447028508682
20
9.1345672509160991
10
-101.31947028508669
20
9.1345672509160991
10
-101.31947028508669
20
2.8646672509161064
10
-100.4954702850867
20
2.8646672509161064
10
-100.4954702850867
20
0.065767250916088926
10
-101.31947028508669
20
0.065767250916088926
10
-101.31947028508669
20
-3.1643327490838762
10
-108.07047028508684
20
-3.1643327490838762
10
-108.07047028508684
20
0.065767250916088926
10
-109.59447028508684
20
0.065767250916088926
10
-109.59447028508684
20
-4.6347327490839163
10
-123.5954702850868
20
-4.6347327490839163
10
-123.59547028508679
20
0.065767250916088926
10
-125.11947028508679
20
0.065767250916088926
10
-125.11947028508681
20
-3.1643327490838762
10
-131.87047028508681
20
-3.1643327490838762
10
-131.87047028508681
20
0.065767250916088926
10
-132.69447028508677
20
0.065767250916088926
10
-132.69447028508677
20
2.8646672509161064
10
-131.87047028508681
20
2.8646672509161064
10
-131.87047028508681
20
9.1345672509160991
10
-130.1454702850867
20
9.1345672509160991
10
-130.1454702850867
20
10.334767250916137
10
-126.84447028508679
20
10.334767250916137
10
-126.84447028508679
20
9.1345672509160991
10
-125.11947028508679
20
9.1345672509160991
10
-125.11947028508679
20
4.6655672509161059
10
-123.59547028508679
20
4.6655672509161059
10
-123.59547028508679
20
9.3645672509160605
10
-109.59447028508684
20
9.3645672509160605
0
LWPOLYLINE
5
115
100
AcDbEntity
8
0
100
AcDbPolyline
90
4
70
1
43
0.0
10
73.760329714913183
20
9.3645672509159539
10
73.760329714913155
20
-4.6347327490840229
10
59.761029714913221
20
-4.6347327490840229
10
59.761029714913249
20
9.3645672509159539
0
LWPOLYLINE
5
116
100
AcDbEntity
8
0
100
AcDbPolyline
90
4
70
1
43
0.0
10
126.4358297149132
20
-23.684732749084073
10
126.4358297149132
20
-9.6854327490841641
10
140.43536971491321
20
-9.6854327490841641
10
140.43536971491321
20
-23.684732749084091
0
LWPOLYLINE
5
117
100
AcDbEntity
8
0
100
AcDbPolyline
90
4
70
1
43
0.0
10
-78.639470285086688
20
-4.6347327490839518
10
-92.639470285086801
20
-4.6347327490839518
10
-92.639470285086801
20
9.3645672509160249
10
-78.639470285086674
20
9.3645672509160249
0
LWPOLYLINE
5
118
100
AcDbEntity
8
0
100
AcDbPolyline
90
4
70
1
43
0.0
10
64.523529714913209
20
-9.6854327490841285
10
78.5228297149132
20
-9.6854327490841285
10
78.5228297149132
20
-23.684732749084052
10
64.523529714913209
20
-23.684732749084034
0
LWPOLYLINE
5
119
100
AcDbEntity
8
0
100
AcDbPolyline
90
4
70
1
43
0.0
10
116.62282971491315
20
-9.6854327490841641
10
116.62282971491315
20
-23.684732749084073
10
102.62352971491323
20
-23.684732749084052
10
102.62352971491323
20
-9.6854327490841641
0
LWPOLYLINE
5
120
100
AcDbEntity
8
0
100
AcDbPolyline
90
4
70
1
43
0.0
10
-16.439470285086696
20
-4.6347327490839874
10
-16.439470285086685
20
9.3645672509159894
10
-2.4394702850867747
20
9.3645672509159876
10
-2.4394702850867818
20
-4.6347327490839882
0
LWPOLYLINE
5
121
100
AcDbEntity
8
0
100
AcDbPolyline
90
4
70
1
43
0.0
10
-59.589470285086676
20
-4.6347327490839518
10
-73.58947028508679
20
-4.6347327490839518
10
-73.58947028508679
20
9.3645672509160249
10
-59.589470285086669
20
9.3645672509160249
0
LWPOLYLINE
5
122
100
AcDbEntity
8
0
100
AcDbPolyline
90
4
70
1
43
0.0
10
2.6105297149131088
20
9.3645672509159876
10
16.610529714913163
20
9.3645672509159876
10
16.610529714913159
20
-4.6347327490839874
10
2.6105297149131013
20
-4.6347327490839874
0
LWPOLYLINE
5
123
100
AcDbEntity
8
0
100
AcDbPolyline
90
4
70
1
43
0.0
10
-21.489470285086792
20
9.3645672509159876
10
-21.489470285086799
20
-4.6347327490839882
10
-35.489470285086774
20
-4.6347327490839874
10
-35.489470285086774
20
9.3645672509159876
0
LWPOLYLINE
5
124
100
AcDbEntity
8
0
100
AcDbPolyline
90
4
70
1
43
0.0
10
-164.36447028508684
20
-42.734732749083918
10
-178.36447028508687
20
-42.734732749083918
10
-178.36447028508687
20
-28.735432749083802
10
-164.36447028508684
20
-28.735432749083802
0
LWPOLYLINE
5
125
100
AcDbEntity
8
0
100
AcDbPolyline
90
4
70
1
43
0.0
10
-159.31447028508674
20
-42.734732749083918
10
-159.31447028508671
20
-28.735432749083802
10
-145.3144702850868
20
-28.73543274908382
10
-145.31447028508688
20
-42.734732749083939
0
LWPOLYLINE
5
126
100
AcDbEntity
8
0
100
AcDbPolyline
90
4
70
1
43
0.0
10
-78.351470285086791
20
-42.734732749083975
10
-78.351470285086791
20
-28.735432749083859
10
-64.352470285086781
20
-28.735432749083859
10
-64.352470285086781
20
-42.734732749083975
0
LWPOLYLINE
5
127
100
AcDbEntity
8
0
100
AcDbPolyline
90
4
70
1
43
0.0
10
-197.41447028508685
20
-42.734732749083904
10
-197.41447028508685
20
-28.735432749083785
10
-183.41447028508682
20
-28.735432749083785
10
-183.41447028508682
20
-42.734732749083904
0
LWPOLYLINE
5
128
100
AcDbEntity
8
0
100
AcDbPolyline
90
4
70
1
43
0.0
10
-178.36447028508678
20
14.415367250916162
10
-178.36447028508678
20
28.4147672509161
10
-164.36447028508681
20
28.4147672509161
10
-164.36447028508681
20
14.415367250916162
0
LWPOLYLINE
5
129
100
AcDbEntity
8
0
100
AcDbPolyline
90
4
70
1
43
0.0
10
128.81712971491322
20
-4.6347327490840575
10
128.81712971491322
20
9.3645672509159184
10
142.81661971491326
20
9.3645672509159184
10
142.8166197149132
20
-4.6347327490840575
0
LWPOLYLINE
5
130
100
AcDbEntity
8
0
100
AcDbPolyline
90
4
70
1
43
0.0
10
40.710529714913157
20
-4.6347327490840229
10
40.710529714913179
20
9.3645672509159539
10
54.710329714913215
20
9.3645672509159539
10
54.710329714913186
20
-4.6347327490840229
0
LWPOLYLINE
5
131
100
AcDbEntity
8
0
100
AcDbPolyline
90
4
70
1
43
0.0
10
92.810329714913209
20
-4.6347327490840575
10
78.811029714913232
20
-4.6347327490840229
10
78.811029714913275
20
9.3645672509159539
10
92.810329714913209
20
9.3645672509159184
0
LWPOLYLINE
5
132
100
AcDbEntity
8
0
100
AcDbPolyline
90
4
70
1
43
0.0
10
-83.402470285086778
20
-28.735432749083859
10
-83.402470285086778
20
-42.734732749083975
10
-97.401470285086802
20
-42.734732749083967
10
-97.401470285086802
20
-28.735432749083838
0
LWPOLYLINE
5
133
100
AcDbEntity
8
0
100
AcDbPolyline
90
4
70
1
43
0.0
10
69.286029714913212
20
14.41536725091602
10
69.286029714913212
20
28.414767250915961
10
83.285329714913217
20
28.414767250915961
10
83.285329714913217
20
14.41536725091602
0
LWPOLYLINE
5
134
100
AcDbEntity
8
0
100
AcDbPolyline
90
4
70
1
43
0.0
10
54.998529714913211
20
-28.73543274908393
10
68.997829714913209
20
-28.73543274908393
10
68.997829714913209
20
-42.734732749084046
10
54.998529714913211
20
-42.734732749084046
0
LWPOLYLINE
5
135
100
AcDbEntity
8
0
100
AcDbPolyline
90
4
70
1
43
0.0
10
-40.251470285086782
20
-42.734732749083989
10
-40.251470285086775
20
-28.735432749083877
10
-26.252470285086822
20
-28.735432749083877
10
-26.252470285086837
20
-42.734732749083989
0
LWPOLYLINE
5
136
100
AcDbEntity
8
0
100
AcDbPolyline
90
4
70
1
43
0.0
10
107.09782971491322
20
-42.73473274908406
10
93.098529714913212
20
-42.73473274908406
10
93.098529714913212
20
-28.735432749083945
10
107.09782971491322
20
-28.735432749083945
0
LWPOLYLINE
5
137
100
AcDbEntity
8
0
100
AcDbPolyline
90
4
70
1
43
0.0
10
7.3735297149131185
20
-9.685432749084093
10
21.372529714913284
20
-9.685432749084093
10
21.372529714913281
20
-23.684732749084016
10
7.3735297149131096
20
-23.684732749084002
0
LWPOLYLINE
5
138
100
AcDbEntity
8
0
100
AcDbPolyline
90
4
70
1
43
0.0
10
-59.301470285086786
20
-28.735432749083859
10
-45.302470285086784
20
-28.735432749083877
10
-45.302470285086784
20
-42.734732749083989
10
-59.301470285086786
20
-42.734732749083975
0
LWPOLYLINE
5
139
100
AcDbEntity
8
0
100
AcDbPolyline
90
4
70
1
43
0.0
10
35.948529714913199
20
-28.735432749083909
10
49.949229714913194
20
-28.73543274908393
10
49.949229714913194
20
-42.734732749084046
10
35.948529714913192
20
-42.734732749084039
0
LWPOLYLINE
5
140
100
AcDbEntity
8
0
100
AcDbPolyline
90
4
70
1
43
0.0
10
16.898529714913188
20
-28.735432749083909
10
30.899529714913214
20
-28.735432749083909
10
30.8995297149132
20
-42.734732749084039
10
16.898529714913174
20
-42.734732749084039
0
LWPOLYLINE
5
141
100
AcDbEntity
8
0
100
AcDbPolyline
90
4
70
1
43
0.0
10
11.847529714913197
20
-28.735432749083891
10
11.84752971491319
20
-42.73473274908401
10
-2.1514702850868348
20
-42.73473274908401
10
-2.1514702850868268
20
-28.735432749083891
0
LWPOLYLINE
5
142
100
AcDbEntity
8
0
100
AcDbPolyline
90
4
70
1
43
0.0
10
74.048529714913215
20
-42.734732749084046
10
74.048529714913215
20
-28.73543274908393
10
88.047829714913235
20
-28.735432749083945
10
88.04782971491322
20
-42.73473274908406
0
LWPOLYLINE
5
143
100
AcDbEntity
8
0
100
AcDbPolyline
90
4
70
1
43
0.0
10
45.473529714913177
20
-9.6854327490841285
10
59.472829714913189
20
-9.6854327490841285
10
59.472829714913189
20
-23.684732749084034
10
45.473529714913177
20
-23.684732749084034
0
LWPOLYLINE
5
144
100
AcDbEntity
8
0
100
AcDbPolyline
90
4
70
1
43
0.0
10
-16.727470285086817
20
-23.684732749084002
10
-30.72647028508684
20
-23.684732749083981
10
-30.726470285086837
20
-9.685432749084093
10
-16.72747028508681
20
-9.685432749084093
0
LWPOLYLINE
5
145
100
AcDbEntity
8
0
100
AcDbPolyline
90
4
70
1
43
0.0
10
-35.777470285086821
20
-9.685432749084093
10
-35.777470285086828
20
-23.684732749083981
10
-49.776470285086916
20
-23.684732749083981
10
-49.776470285086916
20
-9.6854327490840575
0
LWPOLYLINE
5
146
100
AcDbEntity
8
0
100
AcDbPolyline
90
4
70
1
43
0.0
10
-11.676470285086832
20
-23.684732749084002
10
-11.676470285086822
20
-9.685432749084093
10
2.3225297149132018
20
-9.685432749084093
10
2.3225297149131938
20
-23.684732749084002
0
LWPOLYLINE
5
147
100
AcDbEntity
8
0
100
AcDbPolyline
90
4
70
1
43
0.0
10
40.422529714913189
20
-23.684732749084016
10
26.423529714913233
20
-23.684732749084016
10
26.42352971491324
20
-9.685432749084093
10
40.422529714913189
20
-9.6854327490841285
0
LWPOLYLINE
5
148
100
AcDbEntity
8
0
100
AcDbPolyline
90
4
70
1
43
0.0
10
-116.73947028508678
20
-9.6854327490840237
10
-116.73947028508678
20
-23.684732749083928
10
-130.73947028508678
20
-23.684732749083928
10
-130.73947028508678
20
-9.6854327490840237
0
LWPOLYLINE
5
149
100
AcDbEntity
8
0
100
AcDbPolyline
90
4
70
1
43
0.0
10
126.14782971491316
20
-42.734732749084074
10
112.14852971491317
20
-42.734732749084074
10
112.1485297149132
20
-28.735432749083962
10
126.14782971491321
20
-28.735432749083962
0
LWPOLYLINE
5
150
100
AcDbEntity
8
0
100
AcDbPolyline
90
4
70
1
43
0.0
10
-164.36447028508684
20
-23.68473274908391
10
-178.36447028508687
20
-23.68473274908391
10
-178.36447028508678
20
-9.6854327490839864
10
-164.36447028508681
20
-9.6854327490839864
0
LWPOLYLINE
5
151
100
AcDbEntity
8
0
100
AcDbPolyline
90
4
70
1
43
0.0
10
-25.964470285086758
20
28.414767250915993
10
-11.964470285086769
20
28.414767250915993
10
-11.964470285086774
20
14.415367250916056
10
-25.964470285086762
20
14.415367250916056
0
LWPOLYLINE
5
152
100
AcDbEntity
8
0
100
AcDbPolyline
90
4
70
1
43
0.0
10
-159.31447028508671
20
-9.6854327490840237
10
-145.3144702850868
20
-9.6854327490840237
10
-145.3144702850868
20
-23.684732749083928
10
-159.31447028508671
20
-23.68473274908391
0
LWPOLYLINE
5
153
100
AcDbEntity
8
0
100
AcDbPolyline
90
4
70
1
43
0.0
10
-183.41447028508682
20
-23.684732749083892
10
-197.41447028508685
20
-23.684732749083892
10
-197.41447028508674
20
-9.6854327490839864
10
-183.41447028508674
20
-9.6854327490839864
0
LWPOLYLINE
5
154
100
AcDbEntity
8
0
100
AcDbPolyline
90
4
70
1
43
0.0
10
-7.2024702850868234
20
-42.73473274908401
10
-21.201470285086771
20
-42.734732749083989
10
-21.201470285086764
20
-28.735432749083877
10
-7.2024702850868163
20
-28.735432749083891
0
LWPOLYLINE
5
155
100
AcDbEntity
8
0
100
AcDbPolyline
90
4
70
1
43
0.0
10
-69.11447028508681
20
14.415367250916093
10
-83.114470285086796
20
14.415367250916093
10
-83.114470285086796
20
28.414767250916032
10
-69.11447028508681
20
28.414767250916032
0
LWPOLYLINE
5
156
100
AcDbEntity
8
0
100
AcDbPolyline
90
4
70
1
43
0.0
10
140.43536971491324
20
47.464727250915956
10
140.43536971491324
20
33.465267250915964
10
126.43582971491325
20
33.465267250915964
10
126.43582971491325
20
47.464727250915956
0
LWPOLYLINE
5
157
100
AcDbEntity
8
0
100
AcDbPolyline
90
4
70
1
43
0.0
10
-31.014470285086784
20
28.414767250915993
10
-31.014470285086794
20
14.415367250916056
10
-45.014470285086851
20
14.415367250916093
10
-45.014470285086851
20
28.414767250916032
0
LWPOLYLINE
5
158
100
AcDbEntity
8
0
100
AcDbPolyline
90
4
70
1
43
0.0
10
88.336029714913224
20
14.41536725091602
10
88.336029714913224
20
28.414767250915961
10
102.33532971491323
20
28.414767250915922
10
102.33532971491323
20
14.415367250915985
0
LWPOLYLINE
5
159
100
AcDbEntity
8
0
100
AcDbPolyline
90
36
70
1
43
0.0
10
-103.30847028508678
20
23.715667250916148
10
-103.30847028508678
20
28.18456725091611
10
-101.58247028508681
20
28.18456725091611
10
-101.58247028508681
20
29.384867250916038
10
-98.283470285086807
20
29.384867250916002
10
-98.283470285086807
20
28.184567250916075
10
-96.558470285086884
20
28.184567250916075
10
-96.558470285086884
20
21.914567250916047
10
-95.732470285086805
20
21.914567250916047
10
-95.732470285086805
20
19.115767250916065
10
-96.558470285086884
20
19.115767250916065
10
-96.558470285086884
20
15.885567250916068
10
-103.30847028508678
20
15.885567250916104
10
-103.30847028508678
20
19.1157672509161
10
-104.83247028508679
20
19.1157672509161
10
-104.83247028508679
20
14.415367250916127
10
-118.83247028508684
20
14.415367250916127
10
-118.83247028508684
20
19.1157672509161
10
-120.35847028508691
20
19.1157672509161
10
-120.35847028508691
20
15.885567250916104
10
-127.10747028508678
20
15.885567250916104
10
-127.10747028508678
20
19.1157672509161
10
-127.93347028508684
20
19.1157672509161
10
-127.93347028508684
20
21.914567250916086
10
-127.10747028508678
20
21.914567250916086
10
-127.10747028508678
20
28.18456725091611
10
-125.38247028508685
20
28.18456725091611
10
-125.38247028508685
20
29.384867250916038
10
-122.08347028508676
20
29.384867250916038
10
-122.08347028508676
20
28.18456725091611
10
-120.35847028508691
20
28.18456725091611
10
-120.35847028508691
20
23.715667250916148
10
-118.83247028508684
20
23.715667250916148
10
-118.83247028508684
20
28.414767250916068
10
-104.83247028508679
20
28.414767250916068
10
-104.83247028508679
20
23.715667250916148
0
LWPOLYLINE
5
160
100
AcDbEntity
8
0
100
AcDbPolyline
90
4
70
1
43
0.0
10
45.1855297149134
20
14.41536725091602
10
31.18552971491324
20
14.41536725091602
10
31.185529714913244
20
28.414767250915961
10
45.1855297149134
20
28.414767250915961
0
LWPOLYLINE
5
161
100
AcDbEntity
8
0
100
AcDbPolyline
90
4
70
1
43
0.0
10
-130.73947028508672
20
33.465267250916106
10
-130.73947028508672
20
47.464727250916098
10
-116.73947028508678
20
47.464727250916098
10
-116.73947028508678
20
33.465267250916106
0
LWPOLYLINE
5
162
100
AcDbEntity
8
0
100
AcDbPolyline
90
4
70
1
43
0.0
10
26.13552971491325
20
28.414767250915993
10
26.13552971491325
20
14.415367250916056
10
12.135529714913263
20
14.415367250916056
10
12.135529714913266
20
28.414767250915993
0
LWPOLYLINE
5
163
100
AcDbEntity
8
0
100
AcDbPolyline
90
4
70
1
43
0.0
10
-145.31447028508674
20
33.465267250916106
10
-159.31447028508668
20
33.465267250916106
10
-159.31447028508668
20
47.464727250916098
10
-145.31447028508674
20
47.464727250916098
0
LWPOLYLINE
5
164
100
AcDbEntity
8
0
100
AcDbPolyline
90
4
70
1
43
0.0
10
50.236029714913215
20
28.414767250915961
10
64.235329714913249
20
28.414767250915961
10
64.235329714913249
20
14.41536725091602
10
50.236029714913215
20
14.41536725091602
0
LWPOLYLINE
5
165
100
AcDbEntity
8
0
100
AcDbPolyline
90
4
70
1
43
0.0
10
131.1983297149132
20
-28.735432749083962
10
145.1978797149132
20
-28.73543274908398
10
145.1978797149132
20
-42.734732749084102
10
131.19832971491317
20
-42.734732749084074
0
LWPOLYLINE
5
166
100
AcDbEntity
8
0
100
AcDbPolyline
90
4
70
1
43
0.0
10
-64.064470285086713
20
28.414767250916032
10
-50.064470285086799
20
28.414767250916032
10
-50.064470285086799
20
14.415367250916093
10
-64.064470285086713
20
14.415367250916093
0
LWPOLYLINE
5
167
100
AcDbEntity
8
0
100
AcDbPolyline
90
4
70
1
43
0.0
10
-69.11447028508681
20
33.465267250916071
10
-83.114470285086796
20
33.465267250916071
10
-83.114470285086796
20
47.46472725091607
10
-69.114470285086782
20
47.46472725091607
0
LWPOLYLINE
5
168
100
AcDbEntity
8
0
100
AcDbPolyline
90
4
70
1
43
0.0
10
7.0855297149132435
20
28.414767250915993
10
7.0855297149132346
20
14.415367250916056
10
-6.9144702850867512
20
14.415367250916056
10
-6.9144702850867432
20
28.414767250915993
0
LWPOLYLINE
5
169
100
AcDbEntity
8
0
100
AcDbPolyline
90
4
70
1
43
0.0
10
-178.36447028508678
20
33.465267250916142
10
-178.36447028508675
20
47.464727250916141
10
-164.36447028508678
20
47.464727250916141
10
-164.36447028508681
20
33.465267250916142
0
LWPOLYLINE
5
170
100
AcDbEntity
8
0
100
AcDbPolyline
90
4
70
1
43
0.0
10
78.811029714913275
20
47.464727250916006
10
92.810329714913252
20
47.464727250915956
10
92.810329714913252
20
33.465267250915964
10
78.811029714913275
20
33.465267250916
0
LWPOLYLINE
5
171
100
AcDbEntity
8
0
100
AcDbPolyline
90
4
70
1
43
0.0
10
-197.41447028508674
20
33.465267250916142
10
-197.41447028508674
20
47.464727250916141
10
-183.41447028508671
20
47.464727250916141
10
-183.41447028508674
20
33.465267250916142
0
LWPOLYLINE
5
172
100
AcDbEntity
8
0
100
AcDbPolyline
90
36
70
1
43
0.0
10
-127.50247028508684
20
-38.034232749084076
10
-127.50247028508684
20
-41.264332749083898
10
-134.25147028508684
20
-41.264332749083898
10
-134.25147028508684
20
-38.034232749084076
10
-135.07747028508669
20
-38.034232749084076
10
-135.07747028508669
20
-35.235332749083845
10
-134.25147028508684
20
-35.235332749083845
10
-134.25147028508684
20
-28.965432749084066
10
-132.52647028508682
20
-28.965432749084066
10
-132.52647028508682
20
-27.765232749083964
10
-129.22747028508681
20
-27.765232749083964
10
-129.22747028508681
20
-28.965432749084066
10
-127.50247028508682
20
-28.965432749084066
10
-127.50247028508684
20
-33.434432749083918
10
-125.9764702850869
20
-33.434432749083918
10
-125.97647028508689
20
-28.73543274908382
10
-111.97747028508681
20
-28.735432749083838
10
-111.97747028508681
20
-33.434432749083939
10
-110.4514702850868
20
-33.434432749083939
10
-110.4514702850868
20
-28.965432749084087
10
-108.7264702850868
20
-28.965432749084087
10
-108.7264702850868
20
-27.765232749083971
10
-105.42547028508673
20
-27.765232749083971
10
-105.42547028508673
20
-28.965432749084087
10
-103.7024702850868
20
-28.965432749084087
10
-103.7024702850868
20
-35.235332749083867
10
-102.87647028508681
20
-35.235332749083867
10
-102.87647028508681
20
-38.034232749084097
10
-103.7024702850868
20
-38.034232749084097
10
-103.7024702850868
20
-41.264332749083927
10
-110.4514702850868
20
-41.264332749083927
10
-110.4514702850868
20
-38.034232749084097
10
-111.97747028508681
20
-38.034232749084097
10
-111.97747028508681
20
-42.734732749083967
10
-125.9764702850869
20
-42.734732749083939
10
-125.9764702850869
20
-38.034232749084076
0
LWPOLYLINE
5
173
100
AcDbEntity
8
0
100
AcDbPolyline
90
4
70
1
43
0.0
10
-106.92647028508681
20
-9.6854327490840237
10
-92.927470285086784
20
-9.6854327490840557
10
-92.927470285086784
20
-23.684732749083942
10
-106.92647028508681
20
-23.684732749083942
0
LWPOLYLINE
5
174
100
AcDbEntity
8
0
100
AcDbPolyline
90
4
70
1
43
0.0
10
-54.827470285086903
20
-23.684732749083967
10
-68.826470285086785
20
-23.684732749083967
10
-68.826470285086785
20
-9.6854327490840575
10
-54.827470285086903
20
-9.6854327490840557
0
LWPOLYLINE
5
175
100
AcDbEntity
8
0
100
AcDbPolyline
90
4
70
1
43
0.0
10
-87.876470285086725
20
-9.6854327490840557
10
-73.877470285086702
20
-9.6854327490840557
10
-73.877470285086702
20
-23.684732749083967
10
-87.876470285086725
20
-23.684732749083942
0
LWPOLYLINE
5
176
100
AcDbEntity
8
0
100
AcDbPolyline
90
4
70
1
43
0.0
10
102.62352971491325
20
33.465267250915964
10
102.62352971491325
20
47.464727250915956
10
116.62282971491321
20
47.464727250915956
10
116.62282971491321
20
33.465267250915964
0
LWPOLYLINE
5
177
100
AcDbEntity
8
0
100
AcDbPolyline
90
36
70
1
43
0.0
10
111.01712971491322
20
21.914567250915947
10
111.01712971491322
20
28.184567250915972
10
112.74232971491324
20
28.184567250915972
10
112.74232971491324
20
29.384867250915896
10
116.04272971491319
20
29.384867250915896
10
116.04272971491319
20
28.184567250915972
10
117.76662971491319
20
28.184567250915972
10
117.76662971491319
20
23.715667250916013
10
119.29212971491324
20
23.715667250916013
10
119.29212971491324
20
28.414767250915922
10
133.29162971491323
20
28.414767250915922
10
133.29162971491323
20
23.715667250916013
10
134.81712971491322
20
23.715667250916013
10
134.81712971491322
20
28.184567250915972
10
136.54242971491323
20
28.184567250915972
10
136.54242971491323
20
29.384867250915896
10
139.84143971491324
20
29.384867250915896
10
139.84143971491324
20
28.184567250915972
10
141.56672971491327
20
28.184567250915972
10
141.56672971491327
20
21.914567250915947
10
142.3921997149132
20
21.914567250915947
10
142.3921997149132
20
19.115767250915962
10
141.56672971491327
20
19.115767250915962
10
141.56672971491327
20
15.885567250915964
10
134.81712971491322
20
15.885567250915964
10
134.81712971491322
20
19.115767250915962
10
133.29162971491323
20
19.115767250915962
10
133.29162971491323
20
14.415367250915985
10
119.29212971491324
20
14.415367250915985
10
119.29212971491324
20
19.115767250915962
10
117.76662971491319
20
19.115767250915962
10
117.76662971491319
20
15.885567250915964
10
111.01712971491322
20
15.885567250915964
10
111.01712971491322
20
19.115767250915962
10
110.19162971491319
20
19.115767250915962
10
110.19162971491319
20
21.914567250915947
0
LWPOLYLINE
5
178
100
AcDbEntity
8
0
100
AcDbPolyline
90
4
70
1
43
0.0
10
-106.92647028508676
20
33.465267250916106
10
-106.92647028508676
20
47.464727250916098
10
-92.927470285086727
20
47.46472725091607
10
-92.927470285086727
20
33.465267250916071
0
ENDSEC
0
SECTION
2
OBJECTS
0
DICTIONARY
5
C
100
AcDbDictionary
3
ACAD_GROUP
350
D
3
ACAD_MLINESTYLE
350
17
0
DICTIONARY
5
D
100
AcDbDictionary
0
DICTIONARY
5
1A
330
C
100
AcDbDictionary
0
DICTIONARY
5
17
100
AcDbDictionary
0
ENDSEC
0
EOF
